<?xml version="1.0" encoding="UTF-8"?>
<!DOCTYPE svg PUBLIC "-//W3C//DTD SVG 1.1//EN" "http://www.w3.org/Graphics/SVG/1.1/DTD/svg11.dtd">
<!-- Creator: CorelDRAW 2020 (64 Bit) -->
<svg xmlns="http://www.w3.org/2000/svg" xml:space="preserve" width="25px" height="px" version="1.1" style="shape-rendering:geometricPrecision; text-rendering:geometricPrecision; image-rendering:optimizeQuality; fill-rule:evenodd; clip-rule:evenodd"
viewBox="0 0 6.22 6.22"
 xmlns:xlink="http://www.w3.org/1999/xlink"
 xmlns:xodm="http://www.corel.com/coreldraw/odm/2003">
 <defs>
  <style type="text/css">
   <![CDATA[
    .fil0 {fill:white}
   ]]>
  </style>
 </defs>
 <g id="Camada_x0020_1">
  <metadata id="CorelCorpID_0Corel-Layer"/>
  <path class="fil0" d="M3.11 0l0 0c1.71,0 3.11,1.4 3.11,3.11l0 0c0,1.71 -1.4,3.11 -3.11,3.11l0 0c-1.71,0 -3.11,-1.4 -3.11,-3.11l0 0c0,-1.71 1.4,-3.11 3.11,-3.11zm-1.8 1.96l0 2.3c0,0.34 0.31,0.65 0.65,0.65l0.6 0c0.07,0 0.11,-0.05 0.11,-0.11l0 -0.41c-0.04,0 -0.11,0.02 -0.21,0.02 -0.05,0 -0.09,-0.01 -0.14,-0.02 -0.25,-0.04 -0.23,-0.22 -0.37,-0.4 -0.06,-0.08 -0.14,-0.08 -0.16,-0.16 0.08,-0.05 0.18,0 0.24,0.04 0.09,0.06 0.11,0.12 0.16,0.19 0.1,0.12 0.23,0.16 0.38,0.12 0.04,-0.01 0.06,-0.02 0.1,-0.03 0.02,-0.08 0.02,-0.13 0.07,-0.19 0.02,-0.03 0.06,-0.05 0.03,-0.06 -0.03,-0.01 -0.09,-0.01 -0.12,-0.02 -0.26,-0.05 -0.5,-0.16 -0.6,-0.42 -0.1,-0.24 -0.14,-0.59 0.03,-0.83l0.07 -0.1c-0.03,-0.13 -0.04,-0.07 -0.04,-0.23 0,-0.12 0.05,-0.19 0.05,-0.24 0.04,0 0.03,-0.01 0.07,0 0.09,0.01 0.25,0.07 0.32,0.11 0.17,0.1 0.04,0.08 0.31,0.03 0.15,-0.02 0.34,-0.02 0.5,0 0.04,0.01 0.06,0.01 0.1,0.02 0.16,0.04 0.06,0.03 0.26,-0.07 0.05,-0.03 0.25,-0.12 0.32,-0.09 0.02,0.01 0.01,0 0.02,0.03 0.04,0.13 0.06,0.22 0.03,0.36 0,0.04 -0.01,0.05 -0.02,0.08 0.01,0.02 0.02,0.03 0.04,0.05l0.06 0.09c0.11,0.21 0.1,0.52 0.03,0.73 -0.05,0.11 -0.08,0.17 -0.16,0.26 -0.11,0.11 -0.26,0.18 -0.42,0.21 -0.06,0.01 -0.13,0.02 -0.19,0.03 0.02,0.02 0.01,0.01 0.02,0.02 0.01,0.01 0.01,0.01 0.02,0.02 0.1,0.12 0.08,0.31 0.08,0.46 0,0.1 0,0.21 0,0.31 0,0.12 0,0.2 0.12,0.2l0.59 0c0.34,0 0.65,-0.31 0.65,-0.65l0 -2.3c0,-0.34 -0.31,-0.65 -0.65,-0.65l-2.3 0c-0.34,0 -0.65,0.31 -0.65,0.65zm0.64 1.91c0,0.04 0.04,0.04 0.04,0.02 0,-0.04 -0.04,-0.04 -0.04,-0.02zm0.07 0.07c0,0.02 0.01,0.04 0.03,0.04 0.05,0 0.02,-0.06 -0.01,-0.06 -0.01,0 -0.02,0.01 -0.02,0.02zm0.07 0.09c0,0.06 0.06,0.06 0.06,0.03 0,-0.06 -0.06,-0.05 -0.06,-0.03zm0.2 0.19c0,0.04 0.08,0.04 0.08,0.01 0,-0.03 -0.03,-0.03 -0.05,-0.04 0,0 -0.01,0 -0.01,0l-0.02 0.03zm0.29 -0.01l0 0.04c0.09,0.03 0.09,-0.05 0.04,-0.05 -0.01,0 -0.02,0.01 -0.04,0.01zm-0.14 0.02c0,0.07 0.06,0.04 0.07,0.03 0,0 0,0 0,0l0.01 -0.01c0,-0.02 -0.01,-0.02 -0.01,-0.03 -0.04,0 -0.04,-0.01 -0.07,0.01zm-0.27 -0.09c0,0.03 0.03,0.04 0.05,0.05l0.03 -0.02c-0.02,-0.06 -0.08,-0.07 -0.08,-0.03z"/>
 </g>
</svg>
