<?xml version="1.0" encoding="UTF-8"?>
<!DOCTYPE svg PUBLIC "-//W3C//DTD SVG 1.1//EN" "http://www.w3.org/Graphics/SVG/1.1/DTD/svg11.dtd">
<!-- Creator: CorelDRAW 2020 (64 Bit) -->
<svg xmlns="http://www.w3.org/2000/svg" xml:space="preserve" width="25px" height="25px" version="1.1" style="shape-rendering:geometricPrecision; text-rendering:geometricPrecision; image-rendering:optimizeQuality; fill-rule:evenodd; clip-rule:evenodd"
viewBox="0 0 8.29 8.29"
 xmlns:xlink="http://www.w3.org/1999/xlink"
 xmlns:xodm="http://www.corel.com/coreldraw/odm/2003">
 <defs>
  <style type="text/css">
   <![CDATA[
    .fil0 {fill:white}
   ]]>
  </style>
 </defs>
 <g id="Camada_x0020_1">
  <metadata id="CorelCorpID_0Corel-Layer"/>
  <path class="fil0" d="M4.15 0l0 0c2.28,0 4.14,1.87 4.14,4.15l0 0c0,2.28 -1.86,4.14 -4.14,4.14l0 0c-2.28,0 -4.15,-1.86 -4.15,-4.14l0 0c0,-2.28 1.87,-4.15 4.15,-4.15zm-0.74 1.76c-0.38,0.01 -0.69,0.03 -0.99,0.2 -0.26,0.14 -0.45,0.37 -0.55,0.65 -0.12,0.32 -0.11,0.71 -0.11,1.07 -0.01,0.4 -0.01,0.8 0,1.2 0.01,0.48 0.04,0.82 0.32,1.17 0.03,0.04 0.07,0.08 0.11,0.12 0.04,0.04 0.15,0.12 0.21,0.16 0.07,0.03 0.13,0.06 0.21,0.09 0.29,0.12 0.73,0.11 1.08,0.12 0.39,0 0.79,0 1.19,-0.01 0.48,-0.01 0.82,-0.04 1.17,-0.32 0.06,-0.04 0.1,-0.09 0.15,-0.14l0.07 -0.09c0.28,-0.4 0.26,-0.86 0.27,-1.37 0,-0.4 0,-0.8 -0.01,-1.2 -0.01,-0.45 -0.04,-0.84 -0.32,-1.17 -0.09,-0.11 -0.19,-0.2 -0.32,-0.27 -0.35,-0.22 -0.86,-0.21 -1.28,-0.21 -0.4,-0.01 -0.8,-0.01 -1.2,0zm0.18 0.43c-0.29,0 -0.62,-0.01 -0.87,0.1 -0.08,0.03 -0.17,0.09 -0.23,0.14 -0.03,0.03 -0.09,0.09 -0.12,0.13 -0.14,0.21 -0.16,0.42 -0.17,0.68 -0.01,0.16 -0.01,0.32 -0.01,0.48 -0.01,0.33 -0.01,0.65 0,0.98 0,0.35 -0.01,0.83 0.24,1.1 0.01,0 0.01,0.01 0.02,0.01l0.04 0.05c0.04,0.04 0.09,0.07 0.15,0.1 0.05,0.03 0.11,0.05 0.17,0.07 0.26,0.08 0.63,0.07 0.91,0.07 0.33,0.01 0.65,0.01 0.98,0 0.34,0 0.8,0.01 1.07,-0.21 0.05,-0.05 0.04,-0.05 0.08,-0.08 0.08,-0.07 0.14,-0.2 0.18,-0.33 0.08,-0.24 0.07,-0.66 0.07,-0.91 0.01,-0.33 0.01,-0.66 0,-0.98 0,-0.33 0.01,-0.87 -0.25,-1.11 -0.04,-0.04 -0.03,-0.04 -0.08,-0.08 -0.09,-0.07 -0.19,-0.11 -0.29,-0.15 -0.24,-0.07 -0.64,-0.06 -0.91,-0.06 -0.32,-0.01 -0.65,-0.01 -0.98,0zm0.48 0.73c-0.65,0.04 -1.2,0.6 -1.15,1.31 0.05,0.65 0.6,1.19 1.31,1.14 0.65,-0.05 1.19,-0.6 1.14,-1.31 -0.04,-0.65 -0.6,-1.19 -1.3,-1.14zm0.02 0.43c-0.24,0.02 -0.44,0.13 -0.58,0.32 -0.11,0.15 -0.17,0.33 -0.16,0.53 0.03,0.42 0.39,0.77 0.85,0.74 0.42,-0.03 0.77,-0.39 0.74,-0.85 -0.02,-0.24 -0.14,-0.45 -0.32,-0.58 -0.02,-0.02 -0.03,-0.03 -0.06,-0.04 -0.04,-0.03 -0.08,-0.05 -0.13,-0.07 -0.1,-0.04 -0.22,-0.06 -0.34,-0.05zm1.3 -0.77c-0.15,0.02 -0.28,0.15 -0.25,0.32 0.01,0.15 0.15,0.27 0.32,0.25 0.14,-0.01 0.27,-0.15 0.25,-0.32 -0.02,-0.14 -0.15,-0.27 -0.32,-0.25z"/>
 </g>
</svg>
