<?xml version="1.0" encoding="UTF-8"?>
<!DOCTYPE svg PUBLIC "-//W3C//DTD SVG 1.1//EN" "http://www.w3.org/Graphics/SVG/1.1/DTD/svg11.dtd">
<!-- Creator: CorelDRAW 2020 (64 Bit) -->
<svg xmlns="http://www.w3.org/2000/svg" xml:space="preserve" width="25px" height="25px" version="1.1" style="shape-rendering:geometricPrecision; text-rendering:geometricPrecision; image-rendering:optimizeQuality; fill-rule:evenodd; clip-rule:evenodd"
viewBox="0 0 18.34 18.34"
 xmlns:xlink="http://www.w3.org/1999/xlink"
 xmlns:xodm="http://www.corel.com/coreldraw/odm/2003">
 <defs>
  <style type="text/css">
   <![CDATA[
    .fil0 {fill:white}
   ]]>
  </style>
 </defs>
 <g id="Camada_x0020_1">
  <metadata id="CorelCorpID_0Corel-Layer"/>
  <path class="fil0" d="M9.17 0l0 0c5.05,0 9.17,4.13 9.17,9.17l0 0c0,5.04 -4.12,9.17 -9.17,9.17l0 0c-5.04,0 -9.17,-4.13 -9.17,-9.17l0 0c0,-5.04 4.13,-9.17 9.17,-9.17zm-5.29 4.97l0 8.4c0,0.6 0.48,1.09 1.08,1.1l8.42 0c0.6,-0.01 1.09,-0.5 1.09,-1.1l0 -8.4c0,-0.6 -0.49,-1.09 -1.09,-1.09l-8.42 0c-0.6,0 -1.08,0.49 -1.08,1.09zm5.8 3.45c0,-0.57 0.05,-0.66 -0.55,-0.65 -0.37,0 -0.84,-0.05 -1.13,0.06 -0.11,0.29 -0.09,5.22 -0.02,5.35 0.12,0.22 1.52,0.13 1.61,0.05 0.22,-0.19 -0.03,-2.76 0.22,-3.42 0.31,-0.82 1.76,-1.13 1.76,0.73 0,0.6 0,1.21 0,1.82 0,1.01 -0.13,0.94 0.87,0.94 1.13,0 0.92,0.32 0.91,-2.72 0,-1.23 -0.14,-2.19 -0.99,-2.66 -0.42,-0.23 -1.01,-0.29 -1.53,-0.19 -0.81,0.14 -0.93,0.54 -1.15,0.69zm-4.27 -0.24l0 4.71c0,0.54 0.34,0.41 1.32,0.41 0.34,0 0.42,-0.06 0.42,-0.41l0 -4.71c0,-0.54 -0.3,-0.41 -1.33,-0.41 -0.33,0 -0.41,0.07 -0.41,0.41zm0.65 -3.1c-1.55,0.39 -0.91,2.52 0.49,2.18 0.55,-0.13 1,-0.67 0.82,-1.38 -0.13,-0.5 -0.68,-0.96 -1.31,-0.8z"/>
 </g>
</svg>
