<?xml version="1.0" encoding="UTF-8"?>
<!DOCTYPE svg PUBLIC "-//W3C//DTD SVG 1.1//EN" "http://www.w3.org/Graphics/SVG/1.1/DTD/svg11.dtd">
<!-- Creator: CorelDRAW 2020 (64 Bit) -->
<svg xmlns="http://www.w3.org/2000/svg" xml:space="preserve" width="171px" height="115px" version="1.1" style="shape-rendering:geometricPrecision; text-rendering:geometricPrecision; image-rendering:optimizeQuality; fill-rule:evenodd; clip-rule:evenodd"
viewBox="0 0 46.84 31.42"
 xmlns:xlink="http://www.w3.org/1999/xlink"
 xmlns:xodm="http://www.corel.com/coreldraw/odm/2003">
 <defs>
  <style type="text/css">
   <![CDATA[
    .fil0 {fill:white}
   ]]>
  </style>
 </defs>
 <g id="Camada_x0020_1">
  <metadata id="CorelCorpID_0Corel-Layer"/>
  <path class="fil0" d="M4 0l38.84 0c2.2,0 4,1.8 4,4l0 0c0,2.2 -1.8,4 -4,4l-38.84 0c-2.2,0 -4,-1.8 -4,-4l0 0c0,-2.2 1.8,-4 4,-4zm0 23.42l38.84 0c2.2,0 4,1.8 4,4l0 0c0,2.2 -1.8,4 -4,4l-38.84 0c-2.2,0 -4,-1.8 -4,-4l0 0c0,-2.2 1.8,-4 4,-4zm0 -11.71l38.84 0c2.2,0 4,1.8 4,4l0 0c0,2.2 -1.8,4 -4,4l-38.84 0c-2.2,0 -4,-1.8 -4,-4l0 0c0,-2.2 1.8,-4 4,-4z"/>
 </g>
</svg>
